# xmcd
#
# Track frame offsets:
#	150
#	14955
#	28392
#	42955
#	54560
#	67996
#	78204
#	94288
#
# Disc length: 1454 seconds
#
# Revision: 0
# Processed by: cddbd v1.5.2PL0 Copyright (c) Steve Scherf et al.
# Submitted via: audiograbber 1.83.01
#
DISCID=6a05ac08
DTITLE=midnight riders - midnight riders
DYEAR=1900
DGENRE=country
TTITLE0=rainbow
TTITLE1=leave him in the longyard
TTITLE2=silver wings
TTITLE3=down the road i go
TTITLE4=lucky lips
TTITLE5=mama tried
TTITLE6=i'm a lonesome fugitive
TTITLE7=love me tonight
EXTD=
EXTT0=
EXTT1=
EXTT2=
EXTT3=
EXTT4=
EXTT5=
EXTT6=
EXTT7=
PLAYORDER=
